<svg xmlns="http://www.w3.org/2000/svg" viewBox="0 0 512 512" width="512" height="512">
  <defs>
    <linearGradient id="gradient" x1="0%" y1="0%" x2="100%" y2="100%">
      <stop offset="0%" style="stop-color:#4f46e5;stop-opacity:1" />
      <stop offset="100%" style="stop-color:#7c3aed;stop-opacity:1" />
    </linearGradient>
  </defs>

  <!-- Background Circle -->
  <circle cx="256" cy="256" r="240" fill="url(#gradient)" stroke="#ffffff" stroke-width="8"/>

  <!-- Sports Ball -->
  <circle cx="256" cy="200" r="60" fill="#ffffff" opacity="0.9"/>

  <!-- Ball Pattern -->
  <path d="M256 140c-33.1 0-60 26.9-60 60s26.9 60 60 60 60-26.9 60-60-26.9-60-60-60zm0 20c22.1 0 40 17.9 40 40s-17.9 40-40 40-40-17.9-40-40 17.9-40 40-40z" fill="#4f46e5"/>
  <path d="M196 200c-11 0-20-9-20-20s9-20 20-20 20 9 20 20-9 20-20 20zm120 0c-11 0-20-9-20-20s9-20 20-20 20 9 20 20-9 20-20 20z" fill="#7c3aed"/>
  <path d="M256 160c-11 0-20-9-20-20s9-20 20-20 20 9 20 20-9 20-20 20zm0 80c-11 0-20-9-20-20s9-20 20-20 20 9 20 20-9 20-20 20z" fill="#7c3aed"/>

  <!-- Team Members (Silhouettes) -->
  <circle cx="180" cy="320" r="25" fill="#ffffff" opacity="0.8"/>
  <circle cx="256" cy="320" r="25" fill="#ffffff" opacity="0.8"/>
  <circle cx="332" cy="320" r="25" fill="#ffffff" opacity="0.8"/>

  <!-- Body -->
  <rect x="170" y="345" width="20" height="40" rx="10" fill="#ffffff" opacity="0.8"/>
  <rect x="246" y="345" width="20" height="40" rx="10" fill="#ffffff" opacity="0.8"/>
  <rect x="322" y="345" width="20" height="40" rx="10" fill="#ffffff" opacity="0.8"/>

  <!-- Arms -->
  <rect x="160" y="350" width="15" height="25" rx="7" fill="#ffffff" opacity="0.8"/>
  <rect x="337" y="350" width="15" height="25" rx="7" fill="#ffffff" opacity="0.8"/>
  <rect x="236" y="350" width="15" height="25" rx="7" fill="#ffffff" opacity="0.8"/>
  <rect x="261" y="350" width="15" height="25" rx="7" fill="#ffffff" opacity="0.8"/>

  <!-- Text -->
  <text x="256" y="420" font-family="Arial, sans-serif" font-size="24" font-weight="bold" text-anchor="middle" fill="#ffffff">AS</text>
</svg>
